<svg width="10" height="14" viewBox="0 0 10 14" fill="none" xmlns="http://www.w3.org/2000/svg">
<path id="Vector" d="M5.61719 13C6.95312 11.3281 10 7.27604 10 5C10 2.23958 7.76042 0 5 0C2.23958 0 0 2.23958 0 5C0 7.27604 3.04688 11.3281 4.38281 13C4.70312 13.3984 5.29688 13.3984 5.61719 13ZM5 3.33333C5.44203 3.33333 5.86595 3.50893 6.17851 3.82149C6.49107 4.13405 6.66667 4.55797 6.66667 5C6.66667 5.44203 6.49107 5.86595 6.17851 6.17851C5.86595 6.49107 5.44203 6.66667 5 6.66667C4.55797 6.66667 4.13405 6.49107 3.82149 6.17851C3.50893 5.86595 3.33333 5.44203 3.33333 5C3.33333 4.55797 3.50893 4.13405 3.82149 3.82149C4.13405 3.50893 4.55797 3.33333 5 3.33333Z" fill="#ED5959"/>
</svg>
